<svg width="174" height="50" viewBox="0 0 174 50" fill="none" xmlns="http://www.w3.org/2000/svg">
<g clip-path="url(#clip0)">
<path d="M0 12.2188H17.8298C26.108 12.2188 26.2672 12.2188 27.6999 12.8618C29.451 13.6657 30.247 15.4342 30.247 18.6496C30.247 22.1866 29.451 23.6335 26.9039 24.4374C30.247 25.0805 31.2022 26.5274 31.2022 30.5467C31.2022 34.0837 30.247 35.8522 28.1775 36.656C27.3815 36.9776 25.9488 37.1384 23.72 37.2991C23.4016 37.2991 21.4913 37.2991 17.8298 37.2991H0V12.2188ZM17.8298 22.0258C20.3769 22.0258 21.4913 22.0258 21.9689 21.7043C22.6057 21.5435 22.9241 20.9004 22.9241 19.9358C22.9241 18.9712 22.6057 18.3281 21.8097 18.1673C21.3321 18.0065 21.3321 18.0065 17.8298 18.0065H7.16377V22.0258H17.8298ZM17.8298 31.3506C22.2873 31.3506 22.2873 31.3506 22.7649 31.029C23.4016 30.7075 23.72 30.2252 23.72 29.0998C23.72 27.9744 23.4016 27.4921 22.6057 27.1705C22.1281 27.0097 22.1281 27.0097 17.8298 27.0097H7.16377V31.1898H17.8298V31.3506Z" fill="white"/>
<path d="M41.2315 12.2188V23.7943C41.2315 27.8136 41.2315 27.8136 41.5499 28.7782C42.0275 30.7075 43.4603 31.1898 49.8281 31.1898C55.0815 31.1898 56.6734 31.029 57.4694 30.0644C58.1062 29.4213 58.2654 28.7782 58.4246 26.5274C58.4246 25.5628 58.4246 24.2766 58.4246 23.7943V12.2188H66.0659V23.7943C65.9067 29.4213 65.9067 29.9036 65.7475 31.6721C65.27 34.566 63.3596 36.4953 60.6533 37.1384C58.4246 37.6207 55.7183 37.7815 50.1465 37.7815C40.754 37.7815 37.7292 37.2991 35.8189 35.2091C34.7045 33.9229 34.227 32.476 34.0678 29.0998C34.0678 28.1351 34.0678 28.1351 33.9086 23.7943V12.2188H41.2315Z" fill="white"/>
<path d="M98.5417 12.2188V18.0065L80.3935 31.3506L99.1784 31.029V37.2991H68.4539V31.3506L86.4429 18.1673L68.9314 18.4888V12.2188H98.5417Z" fill="white"/>
<path d="M126.56 33.1191H110.004L107.934 37.2991H99.3376L112.551 12.2188H124.172L137.226 37.2991H128.63L126.56 33.1191ZM119.078 18.0065H117.645L112.869 27.4921H124.013L119.078 18.0065Z" fill="white"/>
<path d="M163.175 33.1191H146.778L144.708 37.2991H136.112L149.325 12.2188H161.105L174.159 37.2991H165.563L163.175 33.1191ZM155.693 18.0065H154.26L149.484 27.4921H160.628L155.693 18.0065Z" fill="white"/>
<path d="M47.5993 48.2328H46.9626V43.2489H44.0971V46.3036C44.0971 46.7859 44.0971 47.2682 43.9379 47.5898C43.7787 47.9113 43.6195 48.0721 43.4603 48.2328C43.3011 48.0721 42.9827 48.2328 42.6643 48.2328V47.7505C42.9827 47.7505 43.1419 47.5898 43.3011 47.429C43.4603 47.1074 43.4603 46.7859 43.4603 46.1428L43.6195 42.7666H47.5993V48.2328Z" fill="white"/>
<path d="M52.8528 43.0874C53.1712 43.409 53.4896 44.0521 53.4896 44.6951V48.2321H52.8528V47.1067C52.6936 47.4283 52.3752 47.7498 52.0568 48.0713C51.5792 48.2321 51.2609 48.2321 50.6241 48.2321C49.9873 48.2321 49.5097 48.0714 49.1913 47.7498C48.8729 47.4283 48.7137 47.1067 48.7137 46.4636C48.7137 45.9813 48.8729 45.499 49.1913 45.1775C49.5097 44.8559 50.1465 44.6951 50.7833 44.6951C51.4201 44.6951 52.0568 44.6951 52.6936 44.8559V44.5344C52.6936 44.0521 52.5344 43.5697 52.216 43.409C51.8976 43.0874 51.5792 42.9267 50.9425 42.9267C50.6241 42.9267 50.3057 42.9267 49.9873 43.0874C49.6689 43.2482 49.3505 43.409 49.1913 43.5697L48.8729 43.0874C49.1913 42.9267 49.5097 42.6051 49.8281 42.6051C50.1465 42.6051 50.6241 42.4443 50.9425 42.4443C51.8976 42.6051 52.5344 42.7659 52.8528 43.0874ZM51.8976 47.4283C52.216 47.2675 52.3752 46.9459 52.5344 46.7852C52.6936 46.4636 52.8528 46.1421 52.8528 45.9813V45.6598C52.216 45.499 51.7384 45.499 51.1017 45.499C50.4649 45.499 50.1465 45.6598 49.8281 45.8205C49.5097 45.9813 49.3505 46.1421 49.3505 46.6244C49.3505 46.9459 49.5097 47.2675 49.6689 47.4283C49.9873 47.589 50.3057 47.7498 50.7833 47.7498C51.2609 47.7498 51.5792 47.589 51.8976 47.4283Z" fill="white"/>
<path d="M55.559 47.4286C55.0815 46.7855 54.7631 45.9816 54.7631 44.8562C54.7631 43.7308 55.0815 42.7662 55.559 42.1231C56.0366 41.48 56.8326 41.1585 57.7878 40.9977C57.947 40.9977 58.1061 40.9977 58.2653 40.9977C58.2653 40.9977 58.4245 40.9977 58.5837 40.9977C58.7429 40.9977 58.9021 40.9977 59.0613 40.9977C59.2205 40.9977 59.2205 40.9977 59.3797 40.8369V41.3192C59.2205 41.3192 58.9021 41.48 58.4245 41.48L57.7878 41.6408C56.1958 41.9623 55.3998 43.0877 55.3998 45.017C55.559 44.6954 55.559 44.5347 55.8774 44.2131C56.0366 43.8916 56.355 43.7308 56.6734 43.57C56.9918 43.4093 57.3102 43.4093 57.7878 43.4093C58.2653 43.4093 58.7429 43.57 59.0613 43.7308C59.3797 43.8916 59.6981 44.2131 59.8573 44.6954C60.0165 45.017 60.1757 45.4993 60.1757 45.9816C60.1757 46.4639 60.0165 46.9462 59.8573 47.2678C59.6981 47.5893 59.3797 47.9109 58.9021 48.0716C58.5837 48.2324 58.1062 48.2324 57.6286 48.2324C56.6734 48.2324 56.0366 47.9109 55.559 47.4286ZM59.0613 47.2678C59.3797 46.9462 59.5389 46.4639 59.5389 45.8208C59.5389 45.4993 59.3797 45.1778 59.2205 44.8562C59.0613 44.5347 58.7429 44.2131 58.4245 44.0524C58.1062 43.8916 57.7878 43.7308 57.3102 43.7308C56.9918 43.7308 56.6734 43.8916 56.355 44.0524C56.0366 44.2131 55.7182 44.5347 55.559 44.6954C55.3998 45.017 55.2406 45.3385 55.2406 45.6601C55.2406 45.9816 55.2406 46.3032 55.3998 46.6247C55.559 46.9462 55.7182 47.2678 56.0366 47.4286C56.355 47.5893 56.8326 47.7501 57.3102 47.7501C58.2653 47.7501 58.7429 47.5893 59.0613 47.2678Z" fill="white"/>
<path d="M62.7229 47.9113C62.2453 47.5897 61.9269 47.2682 61.7677 46.9467C61.4493 46.4644 61.4493 45.982 61.4493 45.4997C61.4493 45.0174 61.6085 44.5351 61.7677 44.0528C62.0861 43.5705 62.4045 43.2489 62.7229 43.0881C63.2005 42.7666 63.6781 42.7666 64.1557 42.7666C64.6332 42.7666 65.1108 42.9274 65.5884 43.0881C66.066 43.4097 66.3844 43.7312 66.5436 44.0528C66.862 44.5351 66.862 45.0174 66.862 45.4997C66.862 45.982 66.7028 46.4644 66.5436 46.9467C66.2252 47.429 65.9068 47.7505 65.5884 47.9113C65.27 48.0721 64.6332 48.2328 64.1557 48.2328C63.6781 48.2328 63.0413 48.2328 62.7229 47.9113ZM65.27 47.429C65.5884 47.2682 65.9068 46.9467 66.066 46.6251C66.2252 46.3036 66.3844 45.8213 66.3844 45.4997C66.3844 45.0174 66.2252 44.6959 66.066 44.3743C65.9068 44.0528 65.5884 43.7312 65.27 43.5705C64.9516 43.4097 64.474 43.2489 64.1557 43.2489C63.6781 43.2489 63.3597 43.4097 63.0413 43.5705C62.7229 43.7312 62.4045 44.0528 62.2453 44.3743C62.0861 44.6959 61.9269 45.1782 61.9269 45.4997C61.9269 45.8213 62.0861 46.3036 62.2453 46.6251C62.4045 46.9467 62.7229 47.2682 63.0413 47.429C63.3597 47.5898 63.8373 47.7505 64.1557 47.7505C64.474 47.7505 64.9516 47.5898 65.27 47.429Z" fill="white"/>
<path d="M72.5929 42.9267C73.0705 43.2482 73.3889 43.5697 73.5481 43.8913C73.7073 44.3736 73.8665 44.8559 73.8665 45.3382C73.8665 45.8205 73.7073 46.4636 73.5481 46.7852C73.3889 47.2675 73.0705 47.589 72.5929 47.7498C72.2745 48.2321 71.7969 48.2321 71.3194 48.2321C70.8418 48.2321 70.3642 48.0713 69.8866 47.9106C69.409 47.7498 69.0906 47.4283 68.9314 46.9459V49.8398H68.4539V42.6051H69.0906V43.7305C69.2498 43.2482 69.5682 43.0874 70.0458 42.7659C70.5234 42.6051 70.8418 42.4443 71.3194 42.4443C71.7969 42.4443 72.2745 42.7659 72.5929 42.9267ZM72.2745 47.4283C72.5929 47.2675 72.9113 46.9459 73.0705 46.6244C73.2297 46.3029 73.3889 45.8205 73.3889 45.499C73.3889 45.0167 73.2297 44.6951 73.0705 44.3736C72.9113 44.0521 72.5929 43.7305 72.2745 43.5697C71.9561 43.409 71.6377 43.2482 71.1602 43.2482C70.6826 43.2482 70.3642 43.409 70.0458 43.5697C69.7274 43.7305 69.409 44.0521 69.2498 44.3736C69.0906 44.6951 68.9314 45.1775 68.9314 45.499C68.9314 45.9813 69.0906 46.3029 69.2498 46.6244C69.409 46.9459 69.7274 47.2675 70.0458 47.4283C70.3642 47.589 70.8418 47.7498 71.1602 47.7498C71.6377 47.7498 71.9561 47.589 72.2745 47.4283Z" fill="white"/>
<path d="M78.9607 43.0874C79.2791 43.409 79.5975 44.0521 79.5975 44.6951V48.2321H78.9607V47.1067C78.8015 47.4283 78.4831 47.7498 78.1647 48.0713C77.6872 48.2321 77.3688 48.2321 76.732 48.2321C76.0952 48.2321 75.6176 48.0714 75.2992 47.7498C74.9808 47.4283 74.8217 47.1067 74.8217 46.4636C74.8217 45.9813 74.9808 45.499 75.2992 45.1775C75.6176 44.8559 76.2544 44.6951 76.8912 44.6951C77.528 44.6951 78.1647 44.6951 78.8015 44.8559V44.5344C78.8015 44.0521 78.6423 43.5697 78.3239 43.409C78.0056 43.0874 77.6872 42.9267 77.0504 42.9267C76.732 42.9267 76.4136 42.9267 76.0952 43.0874C75.7768 43.2482 75.4584 43.409 75.2992 43.5697L74.9808 43.0874C75.2992 42.9267 75.6176 42.6051 75.936 42.6051C76.2544 42.6051 76.732 42.4443 77.0504 42.4443C78.0056 42.6051 78.6423 42.7659 78.9607 43.0874ZM78.0055 47.4283C78.3239 47.2675 78.4831 46.9459 78.6423 46.7852C78.8015 46.4636 78.9607 46.1421 78.9607 45.9813V45.6598C78.3239 45.499 77.8464 45.499 77.2096 45.499C76.5728 45.499 76.2544 45.6598 75.936 45.8205C75.6176 45.9813 75.4584 46.3029 75.4584 46.6244C75.4584 46.9459 75.6176 47.2675 75.7768 47.4283C76.0952 47.589 76.4136 47.7498 76.8912 47.7498C77.3688 47.7498 77.6872 47.589 78.0055 47.4283Z" fill="white"/>
<path d="M80.5526 42.6045H85.1693V43.0868H83.0997V48.2315H82.463V43.2476H80.3934V42.6045H80.5526Z" fill="white"/>
<path d="M86.9204 47.9113C86.4428 47.5897 86.1244 47.2682 85.9652 46.9467C85.6469 46.4644 85.6469 45.982 85.6469 45.4997C85.6469 45.0174 85.806 44.5351 85.9652 44.0528C86.2836 43.5705 86.602 43.2489 86.9204 43.0881C87.398 42.7666 87.8756 42.7666 88.3532 42.7666C88.8308 42.7666 89.3083 42.9274 89.7859 43.0881C90.2635 43.4097 90.5819 43.7312 90.7411 44.0528C91.0595 44.5351 91.0595 45.0174 91.0595 45.4997C91.0595 45.982 90.9003 46.4644 90.7411 46.9467C90.4227 47.429 90.1043 47.7505 89.7859 47.9113C89.4675 48.0721 88.9899 48.2328 88.5124 48.2328C88.0348 48.2328 87.398 48.2328 86.9204 47.9113ZM89.6267 47.429C89.9451 47.2682 90.2635 46.9467 90.4227 46.6251C90.5819 46.3036 90.7411 45.8213 90.7411 45.4997C90.7411 45.0174 90.5819 44.6959 90.4227 44.3743C90.2635 44.0528 89.9451 43.7312 89.6267 43.5705C89.3083 43.4097 88.8308 43.2489 88.5124 43.2489C88.0348 43.2489 87.7164 43.4097 87.398 43.5705C87.0796 43.7312 86.7612 44.0528 86.602 44.3743C86.4428 44.6959 86.2836 45.1782 86.2836 45.4997C86.2836 45.8213 86.4428 46.3036 86.602 46.6251C86.7612 46.9467 87.0796 47.2682 87.398 47.429C87.7164 47.5898 88.194 47.7505 88.5124 47.7505C88.8308 47.7505 89.3083 47.5898 89.6267 47.429Z" fill="white"/>
<path d="M96.9499 42.9267C97.4275 43.2482 97.7458 43.5697 97.905 43.8913C98.0642 44.3736 98.2234 44.8559 98.2234 45.3382C98.2234 45.8205 98.0642 46.4636 97.905 46.7852C97.7458 47.2675 97.4275 47.589 96.9499 47.7498C96.6315 48.2321 96.1539 48.2321 95.6763 48.2321C95.1987 48.2321 94.7211 48.0713 94.2436 47.9106C93.766 47.7498 93.4476 47.4283 93.2884 46.9459V49.8398H92.6516V42.6051H93.2884V43.7305C93.4476 43.2482 93.766 43.0874 94.2436 42.7659C94.7211 42.6051 95.0395 42.4443 95.5171 42.4443C95.9947 42.4443 96.6315 42.7659 96.9499 42.9267ZM96.6315 47.4283C96.9499 47.2675 97.2683 46.9459 97.4275 46.6244C97.5867 46.3029 97.7459 45.8205 97.7459 45.499C97.7459 45.0167 97.5867 44.6951 97.4275 44.3736C97.2683 44.0521 96.9499 43.7305 96.6315 43.5697C96.3131 43.409 95.9947 43.2482 95.5171 43.2482C95.0395 43.2482 94.7211 43.409 94.4028 43.5697C94.0844 43.7305 93.766 44.0521 93.6068 44.3736C93.4476 44.6951 93.2884 45.1775 93.2884 45.499C93.2884 45.9813 93.4476 46.3029 93.6068 46.6244C93.766 46.9459 94.0844 47.2675 94.4028 47.4283C94.7211 47.589 95.1987 47.7498 95.5171 47.7498C95.9947 47.7498 96.3131 47.589 96.6315 47.4283Z" fill="white"/>
<path d="M104.432 42.6045V48.2315H103.795V43.5691L100.134 48.2315H99.6561V42.7653H100.293V47.2669L104.114 42.7653H104.432V42.6045Z" fill="white"/>
<path d="M110.322 42.6045V48.2315H109.845V46.1415H108.253L106.342 48.2315H105.705L107.616 46.1415C107.138 46.1415 106.661 45.8199 106.342 45.6592C106.024 45.3376 105.865 45.0161 105.865 44.5338C105.865 44.0514 106.024 43.5691 106.501 43.2476C106.979 42.926 107.457 42.7653 108.093 42.7653H110.322V42.6045ZM109.845 45.6592V43.2476H108.093C107.616 43.2476 107.138 43.4084 106.979 43.5691C106.661 43.7299 106.501 44.0514 106.501 44.5338C106.501 45.0161 106.661 45.1768 106.979 45.3376C107.297 45.4984 107.616 45.6592 108.093 45.6592H109.845Z" fill="white"/>
<path d="M117.963 46.1415L120.351 42.6045H120.988V48.2315H120.351V43.7299L118.123 46.9453H117.804L115.576 43.7299V48.2315H114.939V42.7653H115.576L117.963 46.1415Z" fill="white"/>
<path d="M126.242 43.0874C126.56 43.409 126.878 44.0521 126.878 44.6951V48.2321H126.242V47.1067C126.082 47.4283 125.764 47.7498 125.446 48.0713C124.968 48.2321 124.49 48.2321 124.013 48.2321C123.376 48.2321 122.899 48.0714 122.58 47.7498C122.262 47.4283 122.103 47.1067 122.103 46.4636C122.103 45.9813 122.262 45.499 122.58 45.1775C122.899 44.8559 123.535 44.6951 124.172 44.6951C124.809 44.6951 125.446 44.6951 126.082 44.8559V44.5344C126.082 44.0521 125.923 43.5697 125.605 43.409C125.286 43.0874 124.968 42.9267 124.331 42.9267C124.013 42.9267 123.694 42.9267 123.376 43.0874C123.058 43.2482 122.739 43.409 122.58 43.5697L122.262 43.0874C122.58 42.9267 122.899 42.6051 123.217 42.6051C123.535 42.6051 124.013 42.4443 124.331 42.4443C125.286 42.6051 125.764 42.7659 126.242 43.0874ZM125.127 47.4283C125.446 47.2675 125.605 46.9459 125.764 46.7852C125.923 46.4636 126.082 46.1421 126.082 45.9813V45.6598C125.446 45.499 124.968 45.499 124.331 45.499C123.694 45.499 123.376 45.6598 123.058 45.8205C122.739 45.9813 122.58 46.3029 122.58 46.6244C122.58 46.9459 122.739 47.2675 122.899 47.4283C123.217 47.589 123.535 47.7498 124.013 47.7498C124.49 47.7498 124.968 47.589 125.127 47.4283Z" fill="white"/>
<path d="M132.61 42.9267C133.087 43.2482 133.406 43.5697 133.565 43.8913C133.724 44.3736 133.883 44.8559 133.883 45.3382C133.883 45.8205 133.724 46.4636 133.565 46.7852C133.406 47.2675 133.087 47.589 132.61 47.7498C132.291 48.2321 131.814 48.2321 131.336 48.2321C130.858 48.2321 130.381 48.0713 129.903 47.9106C129.426 47.7498 129.266 47.4283 128.948 46.9459V49.8398H128.311V42.6051H128.948V43.7305C129.107 43.2482 129.426 43.0874 129.903 42.7659C130.381 42.6051 130.699 42.4443 131.177 42.4443C131.654 42.4443 132.291 42.7659 132.61 42.9267ZM132.291 47.4283C132.61 47.2675 132.928 46.9459 133.087 46.6244C133.246 46.3029 133.406 45.8205 133.406 45.499C133.406 45.0167 133.246 44.6951 133.087 44.3736C132.928 44.0521 132.61 43.7305 132.291 43.5697C131.973 43.409 131.654 43.2482 131.177 43.2482C130.699 43.2482 130.381 43.409 130.062 43.5697C129.744 43.7305 129.426 44.0521 129.266 44.3736C129.107 44.6951 128.948 45.1775 128.948 45.499C128.948 45.9813 129.107 46.3029 129.266 46.6244C129.426 46.9459 129.744 47.2675 130.062 47.4283C130.381 47.589 130.858 47.7498 131.177 47.7498C131.654 47.7498 131.973 47.589 132.291 47.4283Z" fill="white"/>
<path d="M139.932 48.2328H139.296L137.226 45.8213H135.952V48.2328H135.316V42.7666H135.952V45.3389H137.226L139.136 42.7666H139.773L137.704 45.4997L139.932 48.2328Z" fill="white"/>
<path d="M140.887 45.6605C140.887 46.1428 141.047 46.4643 141.206 46.7859C141.365 47.1074 141.683 47.429 142.002 47.5898C142.32 47.7505 142.639 47.9113 143.116 47.9113C143.753 47.9113 144.39 47.7505 144.867 47.2682L145.186 47.5898C144.867 47.9113 144.549 48.0721 144.231 48.2328C143.912 48.2328 143.594 48.2328 143.116 48.2328C142.639 48.2328 142.161 48.0721 141.683 47.9113C141.206 47.7505 140.888 47.2682 140.728 46.9467C140.41 46.4644 140.41 45.982 140.41 45.4997C140.41 45.0174 140.569 44.5351 140.728 44.0528C140.888 43.5705 141.365 43.2489 141.683 43.0881C142.161 42.7666 142.639 42.7666 143.116 42.7666C143.594 42.7666 144.071 42.9274 144.39 43.0881C144.708 43.2489 145.027 43.5705 145.345 44.0528C145.663 44.5351 145.663 45.0174 145.663 45.4997C145.663 45.4997 145.663 45.6605 145.663 45.8213H140.887V45.6605ZM141.524 43.7312C141.206 44.0528 140.887 44.5351 140.887 45.1782H145.027C145.027 44.5351 144.867 44.0528 144.39 43.7312C144.071 43.4097 143.594 43.2489 143.116 43.2489C142.479 43.0881 142.002 43.2489 141.524 43.7312Z" fill="white"/>
<path d="M145.982 42.6045H150.598V43.0868H148.529V48.2315H148.051V43.2476H145.982V42.6045Z" fill="white"/>
<path d="M156.648 42.6045V48.2315H156.011V43.5691L152.19 48.2315H151.713V42.7653H152.35V47.2669L156.17 42.7653H156.648V42.6045Z" fill="white"/>
<path d="M162.538 45.1782V42.7666H163.175V48.2328H162.538V45.6605H158.877V48.2328H158.24V42.7666H158.877V45.1782H162.538Z" fill="white"/>
<path d="M164.926 48.2328V42.7666H168.747V43.2489H165.563V48.2328H164.926Z" fill="white"/>
<path d="M173.363 43.0868C173.682 43.4083 174 44.0514 174 44.6945V48.2315H173.363V47.1061C173.204 47.4276 172.886 47.7492 172.567 48.0707C172.249 48.3923 171.771 48.3923 171.294 48.3923C170.657 48.3923 170.179 48.2315 169.861 47.9099C169.543 47.5884 169.383 47.2669 169.383 46.6238C169.383 46.1415 169.543 45.6592 169.861 45.3376C170.179 45.0161 170.816 44.8553 171.453 44.8553C172.09 44.8553 172.727 44.8553 173.363 45.0161V44.6945C173.363 44.2122 173.204 43.7299 172.886 43.5691C172.567 43.2476 172.249 43.0868 171.612 43.0868C171.294 43.0868 170.975 43.0868 170.657 43.2476C170.339 43.4083 170.02 43.5691 169.861 43.7299L169.543 43.2476C169.861 43.0868 170.179 42.7653 170.498 42.7653C170.816 42.7653 171.294 42.6045 171.612 42.6045C172.408 42.6045 173.045 42.7653 173.363 43.0868ZM172.408 47.4276C172.727 47.2669 172.886 46.9453 173.045 46.7846C173.204 46.463 173.363 46.1415 173.363 45.9807V45.6591C172.727 45.4984 172.249 45.4984 171.612 45.4984C170.975 45.4984 170.657 45.6591 170.339 45.8199C170.02 45.9807 169.861 46.3022 169.861 46.6238C169.861 46.9453 170.02 47.2669 170.179 47.4276C170.498 47.5884 170.816 47.7492 171.294 47.7492C171.771 47.7492 172.09 47.5884 172.408 47.4276Z" fill="white"/>
<path d="M163.971 3.53711H145.982V6.91332H163.971V3.53711Z" fill="#FFED00"/>
<path d="M7.00457 0.160156V8.03797H6.2086V1.28556L0.636779 8.03797H0V0.160156H0.795974V6.91257L6.36779 0.160156H7.00457Z" fill="white"/>
<path d="M10.1885 7.87781C9.55171 7.71704 9.07413 7.3955 8.75574 7.07395L9.07413 6.43087C10.0293 7.07395 10.9845 7.3955 11.9396 7.3955C12.5764 7.3955 13.2132 7.23473 13.6908 6.91318C14.1684 6.75241 14.3276 6.2701 14.3276 5.78778C14.3276 5.30547 14.1684 4.98392 13.6908 4.66238C13.3724 4.50161 12.7356 4.34084 12.0988 4.34084H10.5069V3.69775H12.0988C12.7356 3.69775 13.2132 3.53698 13.6908 3.37621C14.0092 3.21543 14.1684 2.73312 14.1684 2.2508C14.1684 1.76849 14.0092 1.28617 13.5316 0.96463C13.2132 0.803859 12.5764 0.643087 11.7804 0.643087C11.3029 0.643087 10.8253 0.643087 10.3477 0.803858C10.0293 0.96463 9.71091 1.28617 9.23332 1.44695L8.91493 0.96463C9.8701 0.321543 10.8253 0 11.9396 0C12.8948 0 13.5316 0.160772 14.1684 0.643087C14.6459 0.96463 14.9643 1.60772 14.9643 2.2508C14.9643 2.73312 14.8051 3.05466 14.6459 3.37621C14.3276 3.69775 14.0092 3.85852 13.5316 4.01929C14.0092 4.18006 14.3276 4.34084 14.6459 4.66238C14.9643 4.98392 15.1235 5.30547 15.1235 5.78778C15.1235 6.2701 14.9643 6.75241 14.6459 7.07395C14.4868 7.3955 14.0092 7.71704 13.5316 7.87781C13.054 8.03858 12.5764 8.19936 11.9396 8.19936C11.462 8.19936 10.8253 8.03858 10.1885 7.87781Z" fill="white"/>
<path d="M17.1931 8.03797V0.160156H22.6057V0.803243H17.9891V8.03797H17.1931Z" fill="white"/>
<path d="M25.6304 7.71704C24.9937 7.3955 24.5161 6.91318 24.1977 6.2701C23.8793 5.62701 23.7201 4.82315 23.7201 4.18006C23.7201 3.37621 23.8793 2.73312 24.1977 2.09003C24.5161 1.44695 24.9937 0.96463 25.6304 0.643087C26.2672 0.160772 26.904 0 27.7 0C28.4959 0 29.1327 0.160772 29.7695 0.482315C30.4063 0.803858 30.8839 1.28617 31.2022 1.92926C31.6798 2.57235 31.839 3.37621 31.839 4.01929C31.839 4.82315 31.6798 5.46624 31.3614 6.10932C31.0431 6.75241 30.5655 7.23473 29.9287 7.55627C29.2919 7.87781 28.6551 8.03858 27.8592 8.03858C26.904 8.19936 26.2672 8.03858 25.6304 7.71704ZM29.4511 7.07395C29.9287 6.75241 30.2471 6.43087 30.5655 5.78778C30.8839 5.30547 31.0431 4.66238 31.0431 4.01929C31.0431 3.37621 30.8839 2.73312 30.5655 2.2508C30.2471 1.76849 29.9287 1.28617 29.4511 1.1254C28.9735 0.803858 28.3367 0.643087 27.7 0.643087C27.0632 0.643087 26.5856 0.803858 25.9488 1.1254C25.4712 1.44695 24.9937 1.76849 24.8345 2.2508C24.5161 2.73312 24.3569 3.37621 24.3569 4.01929C24.3569 4.66238 24.5161 5.30547 24.8345 5.78778C25.1528 6.43087 25.4712 6.75241 26.108 7.07395C26.5856 7.3955 27.2224 7.55627 27.8592 7.55627C28.3367 7.55627 28.9735 7.3955 29.4511 7.07395Z" fill="white"/>
<path d="M32.6349 0.160156H39.1619V0.803243H36.2964V8.03797H35.5004V0.803243H32.6349V0.160156Z" fill="white"/>
<path d="M41.8682 7.71704C41.2314 7.3955 40.7539 6.91318 40.4355 6.2701C40.1171 5.62701 39.9579 4.98392 39.9579 4.18006C39.9579 3.37621 40.1171 2.73312 40.4355 2.09003C40.7539 1.44695 41.2314 0.96463 41.8682 0.643087C42.505 0.160772 43.1418 0 43.9378 0C44.7337 0 45.3705 0.160772 46.0073 0.482315C46.6441 0.803858 47.1217 1.28617 47.44 1.92926C47.7584 2.57235 47.9176 3.21543 47.9176 4.01929C47.9176 4.82315 47.7584 5.46624 47.44 6.10932C47.1217 6.75241 46.6441 7.23473 46.0073 7.55627C45.3705 7.87781 44.7337 8.03858 43.9378 8.03858C43.1418 8.19936 42.505 8.03858 41.8682 7.71704ZM45.6889 7.07395C46.1665 6.75241 46.6441 6.43087 46.8033 5.78778C47.1217 5.30547 47.2809 4.66238 47.2809 4.01929C47.2809 3.37621 47.1217 2.73312 46.8033 2.2508C46.4849 1.76849 46.1665 1.28617 45.6889 1.1254C45.2113 0.803858 44.5745 0.643087 43.9378 0.643087C43.301 0.643087 42.8234 0.803858 42.1866 1.1254C41.709 1.44695 41.2314 1.76849 41.0722 2.2508C40.7539 2.73312 40.5947 3.37621 40.5947 4.01929C40.5947 4.66238 40.7539 5.30547 41.0722 5.78778C41.3906 6.43087 41.8682 6.75241 42.3458 7.07395C42.8234 7.3955 43.4602 7.55627 44.097 7.55627C44.5745 7.55627 45.2113 7.3955 45.6889 7.07395Z" fill="white"/>
<path d="M56.355 4.66176C56.6734 4.98331 56.8325 5.46562 56.8325 5.94794C56.8325 6.59102 56.5142 7.07334 56.0366 7.39488C55.559 7.8772 54.9222 8.03797 53.967 8.03797H50.1464V0.160156H53.8078C54.6038 0.160156 55.2406 0.320928 55.7182 0.642471C56.1958 0.964015 56.355 1.44633 56.355 2.08942C56.355 2.57173 56.1958 3.05405 55.8774 3.37559C55.559 3.69713 55.2406 3.85791 54.763 4.01868C55.559 4.01868 56.0366 4.34022 56.355 4.66176ZM50.9423 0.803243V3.69713H53.8078C54.4446 3.69713 54.763 3.53636 55.0814 3.37559C55.559 3.05405 55.7182 2.7325 55.7182 2.25019C55.7182 1.76787 55.559 1.44633 55.2406 1.28556C54.9222 0.964015 54.4446 0.964015 53.8078 0.964015H50.9423V0.803243ZM53.967 7.39488C54.6038 7.39488 55.2406 7.23411 55.559 7.07334C55.8774 6.7518 56.1958 6.43025 56.1958 5.94794C56.1958 5.46562 56.0366 5.14408 55.7182 4.82254C55.3998 4.50099 54.9222 4.50099 54.2854 4.50099H50.9423V7.39488H53.967Z" fill="white"/>
<path d="M64.9516 8.03797H64.1556V0.803243H60.0166L59.8574 5.14408C59.8574 5.94794 59.6982 6.43025 59.539 6.91257C59.3798 7.39488 59.2206 7.55565 58.9022 7.8772C58.743 8.03797 58.4246 8.03797 57.947 8.03797V7.39488C58.4246 7.39488 58.5838 7.23411 58.9022 6.91257C59.0614 6.59102 59.2206 5.94794 59.2206 5.14408L59.3798 0.160156H65.1108V8.03797H64.9516Z" fill="white"/>
<path d="M67.817 4.34084C67.817 4.98392 67.9762 5.46624 68.2946 5.94855C68.4538 6.43087 68.9313 6.75241 69.4089 7.07395C69.8865 7.3955 70.5233 7.3955 71.0009 7.3955C71.956 7.3955 72.9112 7.07395 73.548 6.2701L74.0256 6.75241C73.7072 7.23473 73.2296 7.3955 72.752 7.71704C72.2744 8.03858 71.6376 8.19936 71.0009 8.19936C70.2049 8.19936 69.5681 8.03858 68.9313 7.71704C68.2946 7.3955 67.817 6.91318 67.4986 6.2701C67.1802 5.62701 67.021 4.98392 67.021 4.18006C67.021 3.37621 67.1802 2.73312 67.4986 2.09003C67.817 1.44695 68.2946 0.96463 68.9313 0.643087C69.4089 0.160772 70.2049 0 70.8417 0C71.4784 0 72.1152 0.160772 72.752 0.482315C73.2296 0.803858 73.7072 1.28617 74.0256 1.92926C74.344 2.57235 74.5031 3.21543 74.5031 4.01929C74.5031 4.01929 74.5031 4.18006 74.5031 4.50161H67.817V4.34084ZM68.7721 1.60772C68.1354 2.09003 67.817 2.89389 67.817 3.69775H73.8664C73.8664 2.73312 73.548 2.09003 73.0704 1.44695C72.5928 0.96463 71.956 0.643087 71.1601 0.643087C70.0457 0.643087 69.2497 0.96463 68.7721 1.60772Z" fill="white"/>
<path d="M82.463 3.69713V0.160156H83.259V8.03797H82.463V4.34022H77.2095V8.03797H76.4136V0.160156H77.2095V3.69713H82.463Z" fill="white"/>
<path d="M87.3979 7.71704C86.7611 7.3955 86.2835 6.91318 85.9651 6.2701C85.6467 5.62701 85.4875 4.98392 85.4875 4.18006C85.4875 3.37621 85.6467 2.73312 85.9651 2.09003C86.2835 1.44695 86.7611 0.96463 87.3979 0.643087C87.8755 0.160772 88.6714 0 89.4674 0C90.2634 0 90.9002 0.160772 91.5369 0.482315C92.1737 0.803858 92.6513 1.28617 92.9697 1.92926C93.2881 2.57235 93.4473 3.21543 93.4473 4.01929C93.4473 4.82315 93.2881 5.46624 92.9697 6.10932C92.6513 6.75241 92.1737 7.23473 91.5369 7.55627C90.9002 7.87781 90.2634 8.03858 89.4674 8.03858C88.6714 8.19936 87.8755 8.03858 87.3979 7.71704ZM91.0594 7.07395C91.6961 6.75241 92.0145 6.43087 92.3329 5.78778C92.6513 5.30547 92.8105 4.66238 92.8105 4.01929C92.8105 3.37621 92.6513 2.73312 92.3329 2.2508C92.0145 1.76849 91.6961 1.28617 91.2186 1.1254C90.741 0.803858 90.1042 0.643087 89.4674 0.643087C88.8306 0.643087 88.353 0.803858 87.7163 1.1254C87.2387 1.44695 86.7611 1.76849 86.6019 2.2508C86.2835 2.73312 86.1243 3.37621 86.1243 4.01929C86.1243 4.66238 86.2835 5.30547 86.6019 5.78778C86.9203 6.2701 87.2387 6.75241 87.7163 6.91318C88.1939 7.23473 88.8306 7.3955 89.4674 7.3955C90.1042 7.55627 90.5818 7.3955 91.0594 7.07395Z" fill="white"/>
<path d="M105.865 4.66176C106.183 4.98331 106.342 5.46562 106.342 5.94794C106.342 6.59102 106.024 7.07334 105.546 7.39488C105.228 7.8772 104.432 8.03797 103.636 8.03797H99.8152V0.160156H103.477C104.273 0.160156 104.909 0.320928 105.387 0.642471C105.865 0.964015 106.024 1.44633 106.024 2.08942C106.024 2.57173 105.865 3.05405 105.546 3.37559C105.228 3.69713 104.909 3.85791 104.432 4.01868C105.069 4.01868 105.546 4.34022 105.865 4.66176ZM100.452 0.803243V3.69713H103.477C104.113 3.69713 104.432 3.53636 104.75 3.37559C105.069 3.05405 105.228 2.7325 105.228 2.25019C105.228 1.76787 105.069 1.44633 104.75 1.28556C104.432 0.964015 103.954 0.964015 103.317 0.964015H100.452V0.803243ZM103.477 7.39488C104.113 7.39488 104.75 7.23411 105.069 7.07334C105.387 6.7518 105.705 6.43025 105.705 5.94794C105.705 5.46562 105.546 5.14408 105.228 4.82254C104.909 4.50099 104.432 4.50099 103.795 4.50099H100.77V7.39488H103.477Z" fill="white"/>
</g>
<defs>
<clipPath id="clip0">
<rect width="174" height="50" fill="white"/>
</clipPath>
</defs>
</svg>
