<svg width="82" height="90" viewBox="0 0 82 90" fill="none" xmlns="http://www.w3.org/2000/svg">
<g clip-path="url(#clip0)">
<path d="M18.7917 19.7573L1.88942 24.7272C0.775583 25.0551 0 26.1492 0 27.3945V66.0775C0 67.3228 0.775583 68.4169 1.88942 68.7448L18.7917 73.7147V19.7573Z" fill="#FFE300"/>
<path d="M79.663 24.643L23.9167 19.3379V74.1352L79.663 68.8301C80.9853 68.7049 82 67.5112 82 66.0781V27.395C82 25.9619 80.9853 24.7683 79.663 24.643ZM35.875 60.5519C35.875 62.0772 34.727 63.315 33.3125 63.315C31.898 63.315 30.75 62.0772 30.75 60.5519V32.9212C30.75 31.396 31.898 30.1581 33.3125 30.1581C34.727 30.1581 35.875 31.396 35.875 32.9212V60.5519ZM49.5417 58.7099C49.5417 60.2351 48.3937 61.473 46.9792 61.473C45.5647 61.473 44.4167 60.2351 44.4167 58.7099V34.7632C44.4167 33.238 45.5647 32.0001 46.9792 32.0001C48.3937 32.0001 49.5417 33.238 49.5417 34.7632V58.7099ZM63.2083 56.8678C63.2083 58.3931 62.0603 59.6309 60.6458 59.6309C59.2313 59.6309 58.0833 58.3931 58.0833 56.8678V36.6053C58.0833 35.0801 59.2313 33.8422 60.6458 33.8422C62.0603 33.8422 63.2083 35.0801 63.2083 36.6053V56.8678ZM75.1667 55.9468C75.1667 57.472 74.0187 58.7099 72.6042 58.7099C71.1897 58.7099 70.0417 57.472 70.0417 55.9468V38.4473C70.0417 36.9221 71.1897 35.6843 72.6042 35.6843C74.0187 35.6843 75.1667 36.9221 75.1667 38.4473V55.9468Z" fill="#FFE300"/>
</g>
<defs>
<clipPath id="clip0">
<rect width="82" height="88.4185" fill="white" transform="translate(0 0.685059)"/>
</clipPath>
</defs>
</svg>
