<svg width="39" height="56" viewBox="0 0 39 56" fill="none" xmlns="http://www.w3.org/2000/svg">
<path d="M27.5655 22.3421C30.9601 19.018 35.5507 14.5222 35.9691 3.7818H39V0.55957H0V3.7818H3.0309C3.4493 14.5222 8.0399 19.018 11.4345 22.3421C13.7116 24.572 15 25.9369 15 28.0559C15 30.175 13.7116 31.5398 11.4345 33.7697C8.0399 37.0938 3.4493 41.5896 3.0309 52.33H0V55.5522H39V52.33H35.9691C35.5507 41.5896 30.9601 37.0938 27.5655 33.7697C25.2884 31.5398 24 30.175 24 28.0559C24 25.9369 25.2884 24.572 27.5655 22.3421ZM18 40.1326C17.5367 40.2353 17.079 40.3847 16.6323 40.5832L7.4446 44.6667C8.945 40.5691 11.3616 38.2015 13.4557 36.1509C15.7927 33.8624 18 31.7008 18 28.0559V40.1326ZM25.5443 36.1509C27.6384 38.2015 30.0549 40.5691 31.5554 44.6666L22.3677 40.5831C21.921 40.3846 21.4633 40.2352 21 40.1325V28.0559C21 31.7008 23.2073 33.8624 25.5443 36.1509ZM7.3919 11.3003C6.6666 9.27043 6.1657 6.8195 6.0346 3.7818H32.9653C32.8342 6.8195 32.3334 9.27043 31.608 11.3003H7.3919Z" fill="#FFE300"/>
</svg>
