<svg width="65" height="65" viewBox="0 0 65 65" fill="none" xmlns="http://www.w3.org/2000/svg">
<path d="M36.8437 16.9971C37.6854 16.0017 38.2129 14.7328 38.2129 13.3301C38.2129 10.8474 36.621 8.7293 34.4043 7.94257V3.80859H38.2129V0H26.7871V3.80859H30.5957V11.4258H32.5C33.5507 11.4258 34.4043 12.2794 34.4043 13.3301C34.4043 14.3807 33.5507 15.2344 32.5 15.2344C31.4493 15.2344 30.5957 14.3807 30.5957 13.3301H26.7871C26.7871 14.7328 27.3146 16.0017 28.1563 16.9971L9.1909 26.6602H0V65H65V26.6602H55.8091L36.8437 16.9971ZM32.4995 19.043H32.5004L47.4291 26.6602H17.5708L32.4995 19.043ZM11.5527 57.3828H7.74414V34.2773H11.5527V57.3828ZM22.9785 57.3828H19.1699V34.2773H22.9785V57.3828ZM34.4043 57.3828H30.5957V34.2773H34.4043V57.3828ZM45.8301 57.3828H42.0215V34.2773H45.8301V57.3828ZM57.2559 57.3828H53.4473V34.2773H57.2559V57.3828Z" fill="#FFE300"/>
</svg>
