<svg width="34" height="29" viewBox="0 0 34 29" fill="none" xmlns="http://www.w3.org/2000/svg">
<path d="M33.4749 0.78898C33.0597 0.280145 32.4376 0 31.7232 0C31.3349 0 30.9235 0.0818605 30.5007 0.243762L1.72039 11.2502C0.193046 11.8342 -0.0126572 12.7105 0.00057216 13.1808C0.0138015 13.6512 0.26879 14.5145 1.82674 15.0111C1.83608 15.014 1.84542 15.0169 1.85475 15.0195L7.82456 16.731L11.053 25.9799C11.4932 27.2408 12.4813 28.0241 13.632 28.0241C14.3575 28.0241 15.0711 27.7195 15.6958 27.1437L19.3883 23.7375L24.7441 28.0579L24.7459 28.0592L24.7968 28.1002C24.8014 28.1039 24.8064 28.1078 24.811 28.1114C25.4063 28.574 26.0561 28.8183 26.6909 28.8185C27.9311 28.8185 28.9189 27.8988 29.2065 26.4758L33.9222 3.14838C34.1115 2.21205 33.9528 1.37422 33.4749 0.78898ZM9.82167 16.4059L21.3392 10.5112L14.1676 18.1455C14.0501 18.2705 13.9669 18.4236 13.9259 18.5901L12.543 24.2019L9.82167 16.4059ZM14.3461 25.6754C14.2984 25.7193 14.2504 25.7585 14.2024 25.7946L15.4854 20.5888L17.8192 22.4716L14.3461 25.6754ZM31.9697 2.75207L27.254 26.0797C27.2087 26.303 27.0636 26.8224 26.6909 26.8224C26.5067 26.8224 26.2753 26.7219 26.0385 26.5392L19.9696 21.6437L19.9668 21.6416L16.3557 18.7284L26.7267 7.68813C27.0587 7.3347 27.0888 6.79338 26.798 6.40513C26.507 6.01688 25.9796 5.89474 25.5482 6.11563L8.49069 14.8459L2.4397 13.1115L31.2112 2.10836C31.4542 2.01533 31.6239 1.99584 31.7232 1.99584C31.7842 1.99584 31.8926 2.00311 31.9328 2.05275C31.9857 2.11746 32.0532 2.33809 31.9697 2.75207Z" fill="white"/>
</svg>
