<svg width="34" height="29" viewBox="0 0 34 29" fill="none" xmlns="http://www.w3.org/2000/svg">
<path d="M33.4749 0.879312C33.0597 0.370477 32.4376 0.090332 31.7232 0.090332C31.3349 0.090332 30.9235 0.172193 30.5007 0.334094L1.72039 11.3406C0.193046 11.9245 -0.0126572 12.8008 0.00057216 13.2712C0.0138015 13.7415 0.26879 14.6049 1.82674 15.1015C1.83608 15.1043 1.84542 15.1072 1.85475 15.1098L7.82456 16.8213L11.053 26.0703C11.4932 27.3312 12.4813 28.1144 13.632 28.1144C14.3575 28.1144 15.0711 27.8099 15.6958 27.234L19.3883 23.8278L24.7441 28.1482L24.7459 28.1495L24.7968 28.1906C24.8014 28.1942 24.8064 28.1981 24.811 28.2018C25.4063 28.6643 26.0561 28.9086 26.6909 28.9089C27.9311 28.9089 28.9189 27.9892 29.2065 26.5661L33.9222 3.23871C34.1115 2.30239 33.9528 1.46455 33.4749 0.879312ZM9.82167 16.4962L21.3392 10.6015L14.1676 18.2358C14.0501 18.3608 13.9669 18.5139 13.9259 18.6805L12.543 24.2922L9.82167 16.4962ZM14.3461 25.7657C14.2984 25.8096 14.2504 25.8489 14.2024 25.885L15.4854 20.6792L17.8192 22.562L14.3461 25.7657ZM31.9697 2.8424L27.254 26.1701C27.2087 26.3933 27.0636 26.9128 26.6909 26.9128C26.5067 26.9128 26.2753 26.8122 26.0385 26.6295L19.9696 21.734L19.9668 21.7319L16.3557 18.8187L26.7267 7.77846C27.0587 7.42503 27.0888 6.88372 26.798 6.49546C26.507 6.10721 25.9796 5.98507 25.5482 6.20596L8.49069 14.9362L2.4397 13.2018L31.2112 2.1987C31.4542 2.10566 31.6239 2.08617 31.7232 2.08617C31.7842 2.08617 31.8926 2.09345 31.9328 2.14308C31.9857 2.20779 32.0532 2.42842 31.9697 2.8424Z" fill="#FFE300"/>
</svg>
